<svg width="44" height="57" viewBox="0 0 44 57" fill="none" xmlns="http://www.w3.org/2000/svg">
<g filter="url(#filter0_d_0_328)">
<path d="M39.7348 33.9723C39.7348 53.0722 5.53685 53.7998 5.53685 33.0628C4.62733 29.4247 3.53591 27.2418 5.90066 24.6952C7.5378 23.0581 8.99303 21.9666 11.7216 22.3304C11.1759 17.7828 10.4483 12.8714 9.90255 8.14193C8.99303 1.59338 17.9063 0.320054 18.8158 6.8686L20.2711 17.419V5.77717C20.2711 -1.31708 29.1844 -1.31708 29.1844 5.77717V18.6924L31.0034 7.41431C31.9129 1.22957 40.8262 2.5029 39.9167 8.68764L37.552 23.6038C40.8262 25.2409 39.7348 31.0618 39.7348 33.9723ZM11.1759 23.9676C9.53874 23.6038 5.90066 26.878 6.26447 28.3333L19.1797 30.5161C23.1815 31.2437 24.0911 25.9685 20.0892 25.2409L11.1759 23.9676ZM6.81018 30.3342L7.35589 32.5171C7.9016 52.1627 37.9158 50.1618 37.9158 33.9723C37.9158 22.8762 39.1891 25.059 25.5463 25.059C25.5463 31.6075 25.7282 29.7885 32.8225 30.5161C34.0958 30.5161 33.732 32.699 33.732 33.4266C33.732 35.6094 28.2749 33.0628 27.911 39.7932C27.911 40.8847 26.092 40.8847 26.092 39.6113C26.2739 35.9732 28.093 33.4266 31.9129 32.699V32.3352C26.6377 32.3352 24.6368 31.7894 24.0911 29.7885C23.3634 31.6075 21.5444 32.8809 18.9977 32.3352L6.81018 30.3342ZM23.7273 25.4228C23.7273 24.6952 23.7273 23.9676 23.7273 23.24C27.7291 23.24 31.9129 23.0581 35.9148 23.24L38.0977 8.50573C38.6434 4.68575 33.3682 3.77623 32.8225 7.77812L30.6396 22.3304C29.5482 22.3304 28.4568 22.3304 27.3653 22.3304V5.77717C27.3653 1.22957 22.0901 1.22957 22.0901 5.77717V22.1485C20.9987 22.1485 20.0892 22.1485 18.9977 22.3304L16.9968 7.23241C16.4511 3.04861 11.1759 3.77623 11.7216 7.96002C12.2673 12.6895 12.9949 17.6009 13.7225 22.5123C18.9978 23.24 23.1815 23.0581 23.7273 25.4228Z" fill="#EE58B6"/>
</g>
<defs>
<filter id="filter0_d_0_328" x="0.476318" y="0.456482" width="43.5054" height="56" filterUnits="userSpaceOnUse" color-interpolation-filters="sRGB">
<feFlood flood-opacity="0" result="BackgroundImageFix"/>
<feColorMatrix in="SourceAlpha" type="matrix" values="0 0 0 0 0 0 0 0 0 0 0 0 0 0 0 0 0 0 127 0" result="hardAlpha"/>
<feOffset dy="4"/>
<feGaussianBlur stdDeviation="2"/>
<feComposite in2="hardAlpha" operator="out"/>
<feColorMatrix type="matrix" values="0 0 0 0 0 0 0 0 0 0 0 0 0 0 0 0 0 0 0.25 0"/>
<feBlend mode="normal" in2="BackgroundImageFix" result="effect1_dropShadow_0_328"/>
<feBlend mode="normal" in="SourceGraphic" in2="effect1_dropShadow_0_328" result="shape"/>
</filter>
</defs>
</svg>
