<svg width="44" height="57" viewBox="0 0 44 57" fill="none" xmlns="http://www.w3.org/2000/svg">
<g filter="url(#filter0_d_0_305)">
<path d="M39.7483 9.25712L37.3557 23.6126C40.4845 25.269 39.5642 31.1584 39.5642 34.1032C39.5642 53.4279 4.77979 53.4279 4.77979 34.1032C4.77979 29.502 4.77979 24.9009 4.77979 20.4838C4.77979 16.803 10.8533 16.4349 13.0618 18.4594C14.5342 16.987 17.6629 16.987 19.5034 17.9072L18.7672 5.02409C18.3991 -0.497253 27.6013 -1.04939 27.9694 4.47195L28.7056 19.9317L30.7301 7.78476C31.6503 1.89533 40.6685 2.63151 39.7483 9.25712ZM25.0247 24.9009C25.0247 32.0787 26.4971 29.8701 32.3865 30.4223C32.9386 30.4223 33.3067 30.7903 33.3067 31.3425V33.551C33.3067 35.2074 27.7854 33.367 27.4173 39.8085C27.4173 41.0969 25.5768 40.9128 25.7609 39.8085C25.7609 35.9436 27.7854 33.367 31.4663 32.6308V32.2627C23.0002 32.6308 23.1843 31.3425 23.1843 23.0605C24.4726 23.0605 25.7609 23.0605 27.0492 23.0605C27.0492 17.171 26.313 10.5454 26.129 4.656C25.9449 1.52724 20.4236 1.89533 20.6076 5.02409L21.3438 22.6924V32.8148C21.3438 36.3117 15.0863 36.6798 13.0618 34.6553C11.5894 36.1276 8.46068 36.1276 6.80428 35.3915C8.27664 51.0353 37.7238 50.4831 37.7238 34.1032C37.9078 23.2445 37.7238 24.9009 25.0247 24.9009ZM6.62023 32.9989C6.98832 34.4712 12.1416 34.4712 12.1416 32.8148V20.4838C12.1416 18.6434 6.62023 18.6434 6.62023 20.4838C6.62023 24.5328 6.62023 28.7659 6.62023 32.9989ZM30.178 23.0605C32.0184 23.0605 33.8589 23.0605 35.6993 23.0605L37.9078 8.88903C38.46 4.84004 33.1227 4.47195 32.3865 7.9688L30.178 23.0605ZM19.5034 32.8148V20.4838C19.5034 18.6434 13.982 18.6434 13.982 20.4838V32.8148C13.982 34.4712 19.5034 34.4712 19.5034 32.8148Z" fill="#EE58B6"/>
</g>
<defs>
<filter id="filter0_d_0_305" x="0.779785" y="0.59668" width="43.0344" height="56" filterUnits="userSpaceOnUse" color-interpolation-filters="sRGB">
<feFlood flood-opacity="0" result="BackgroundImageFix"/>
<feColorMatrix in="SourceAlpha" type="matrix" values="0 0 0 0 0 0 0 0 0 0 0 0 0 0 0 0 0 0 127 0" result="hardAlpha"/>
<feOffset dy="4"/>
<feGaussianBlur stdDeviation="2"/>
<feComposite in2="hardAlpha" operator="out"/>
<feColorMatrix type="matrix" values="0 0 0 0 0 0 0 0 0 0 0 0 0 0 0 0 0 0 0.25 0"/>
<feBlend mode="normal" in2="BackgroundImageFix" result="effect1_dropShadow_0_305"/>
<feBlend mode="normal" in="SourceGraphic" in2="effect1_dropShadow_0_305" result="shape"/>
</filter>
</defs>
</svg>
