<svg width="447" height="343" viewBox="0 0 447 343" fill="none" xmlns="http://www.w3.org/2000/svg">
<path fill-rule="evenodd" clip-rule="evenodd" d="M361.572 3.27096C373.366 15.4803 382.675 30.0798 388.769 45.9238C389.187 47.012 389.593 48.2208 389.194 49.3162C386.12 57.7505 380.187 64.782 374.369 71.6191L363.218 84.7257C359.669 88.8964 356.12 93.0678 352.451 97.1336C333.773 117.835 311.703 135.937 286.141 147.074C285.177 147.495 284.142 147.914 283.103 147.746C282.064 147.578 281.091 146.569 281.363 145.553C284.523 133.74 287.703 121.389 285.168 109.426C284.556 106.54 283.874 102.907 286.258 101.171C305.564 87.1129 319.463 67.019 332.783 47.198C336.133 42.2141 339.473 37.2164 342.437 31.994C347.7 22.7218 351.753 12.7641 354.461 2.45242C354.833 1.03739 356.619 0.400203 358.034 0.771031C359.45 1.14186 360.555 2.2187 361.572 3.27096ZM353.318 18.4329C352.119 17.9372 351.014 19.2778 350.403 20.4221C349.743 21.6599 349.083 22.8996 348.422 24.1403L348.421 24.1429C336.201 47.0961 323.794 70.4015 305.172 88.4805C303.413 90.1886 301.446 92.2522 301.77 94.6829C302.81 102.474 298.65 110.702 291.759 114.485C288.631 116.203 288.668 120.634 289.126 124.173C289.31 125.59 289.845 127.366 291.269 127.486C295.445 127.838 299.452 129.894 302.174 133.08C303.033 134.085 304.661 133.457 305.78 132.753C333.951 115.043 355.597 88.8834 376.731 63.1809C377.46 62.2942 378.236 61.177 377.856 60.0938C374.658 50.9835 375.17 40.6301 379.253 31.8803C376.844 27.0872 373.973 22.5265 370.693 18.2818C365.235 20.6513 358.816 20.7071 353.318 18.4329ZM286.498 142.396C287.609 142.978 288.954 142.424 290.066 141.844C292.988 140.319 295.802 138.588 298.481 136.668C299.189 136.16 299.4 135.147 299.15 134.313C298.9 133.478 298.273 132.806 297.579 132.279C295.413 130.635 292.385 130.203 289.845 131.175C289.376 131.354 288.91 131.589 288.587 131.973C288.208 132.423 288.07 133.023 287.948 133.598C287.334 136.507 286.85 139.444 286.498 142.396ZM365.61 12.3665C363.696 8.62374 360.744 5.41856 357.171 3.20365C355.928 4.29928 355.686 5.96413 355.44 7.6614C355.271 8.82605 355.1 10.006 354.601 11.0277C354.439 11.3602 354.241 11.6782 354.043 11.9955L354.043 11.9957L354.042 11.996L354.042 11.9964C353.665 12.601 353.29 13.2031 353.168 13.8974C352.984 14.9565 353.88 16.2852 354.897 15.9348C355.723 15.6499 356.589 15.8329 357.463 16.0175C357.924 16.1149 358.387 16.2127 358.847 16.2425C361.53 16.4156 363.756 14.3137 365.61 12.3665ZM380.781 34.7992C378.731 38.878 379.055 43.6954 379.428 48.2454L379.963 54.7706C380.022 55.4882 380.412 56.4565 381.104 56.2578C381.533 55.0558 382.351 54.0643 383.172 53.07C383.889 52.2004 384.608 51.3288 385.07 50.3126C386.636 46.8711 384.898 42.9049 383.186 39.5339L380.781 34.7992ZM288.99 107.222C289.076 108.499 290.402 109.454 291.68 109.418C292.959 109.382 294.11 108.555 294.857 107.516C295.605 106.478 296.014 105.241 296.414 104.026L297.732 100.013C298.1 98.8939 298.122 97.1832 296.952 97.0516C296.53 97.0041 296.126 97.2277 295.78 97.474C294.468 98.4065 293.513 99.746 292.583 101.059L290.05 104.638C289.501 105.414 288.927 106.274 288.99 107.222ZM58.7951 88.1C49.8967 71.8075 44.216 53.7656 42.1749 35.314C42.0494 34.1794 40.7983 33.4445 39.6574 33.4839C38.5166 33.5234 37.4807 34.1262 36.5105 34.7277C22.7362 43.2678 11.0111 55.0884 2.58291 68.9315C1.72979 70.3327 0.888741 71.8207 0.780998 73.4576C0.675258 75.0642 1.28865 76.6226 1.9207 78.1034C11.2179 99.8852 26.7218 118.36 42.4599 136.057C54.5815 149.688 67.5575 163.486 84.4588 170.347C87.1905 171.456 91.1583 171.907 92.3164 169.196C92.6533 168.407 92.6352 167.52 92.6178 166.662L92.6171 166.629C92.4309 157.439 93.4753 148.224 95.7137 139.308C96.2316 137.246 96.5008 134.464 94.5713 133.57C87.3144 130.207 82.3408 123.425 77.6899 116.918C71.0062 107.567 64.3047 98.1877 58.7951 88.1ZM74.5041 159.318C73.5043 159.584 72.5061 158.954 71.6714 158.342C56.2888 147.072 44.3681 131.818 32.6558 116.769L11.9867 90.2115C15.4755 87.9896 15.9185 83.1618 15.9945 79.0262C16.0934 73.6504 16.1656 68.1157 14.2236 63.102C13.792 61.9876 14.3539 60.7527 14.9557 59.7202C17.5364 55.292 21.1155 51.4494 25.3494 48.561C25.7593 48.2814 26.1932 48.0036 26.6845 47.9342C27.9811 47.751 28.9758 49.012 29.6687 50.1231C32.4052 54.5114 36.1661 59.4741 41.3251 59.1128C43.2895 58.9752 44.3788 61.2891 44.9519 63.173C52.0781 86.6009 65.458 107.732 81.1486 126.532C83.1876 128.975 83.6992 132.273 84.2062 135.54C84.7715 139.183 85.331 142.79 87.9964 145.132C90.2721 147.133 89.8497 150.725 89.2356 153.692C89.11 154.299 88.9603 154.949 88.4992 155.363C88.1567 155.671 87.6937 155.799 87.2488 155.918L74.5041 159.318ZM38.0368 53.6859C35.215 51.7142 32.7775 49.1946 30.9002 46.3091C30.4942 45.685 30.0997 44.9854 30.1711 44.2442C30.2486 43.4383 30.8549 42.7934 31.4583 42.2534C32.9481 40.92 34.632 39.8037 36.4402 38.9507C37.1024 38.6383 37.9574 38.3845 38.5075 38.8677C38.8314 39.1522 38.9337 39.6067 39.0182 40.0295L41.6245 53.0646C41.7786 53.8352 40.9703 54.5292 40.1848 54.5516C39.3992 54.574 38.681 54.136 38.0368 53.6859ZM12.2445 78.898C12.1892 81.3498 12.0019 84.1015 10.1645 85.7257C9.77992 85.7714 9.52453 85.3494 9.37384 84.9927C8.04995 81.8587 6.7077 78.6493 6.49923 75.2536C6.29075 71.8579 7.42877 68.1808 10.2036 66.2125C10.5791 65.9461 11.1298 65.7262 11.4613 66.0457C11.5945 66.1741 11.6514 66.3605 11.7 66.539C12.454 69.3106 12.3947 72.2295 12.33 75.1012L12.2445 78.898ZM87.1249 160.453C87.5706 160.818 87.618 161.47 87.6301 162.046L87.7626 168.348C85.1774 166.915 82.7006 165.286 80.3605 163.48C79.9167 163.138 79.4292 162.583 79.7009 162.093C79.8357 161.85 80.1158 161.733 80.3766 161.637C82.0494 161.02 83.779 160.557 85.5364 160.256C86.0796 160.163 86.6984 160.104 87.1249 160.453ZM87.2737 135.629C87.2501 135.344 87.25 135.034 87.4192 134.804C87.8657 134.197 88.8345 134.747 89.2441 135.379C90.2305 136.902 90.4482 138.897 89.8137 140.597C88.3652 139.355 87.432 137.53 87.2737 135.629ZM376.148 76.6997C378.199 74.1167 381.938 73.745 385.235 73.8256C386.006 73.8444 386.799 73.8816 387.5 74.2013C389.451 75.0903 389.865 77.6394 389.931 79.7822C389.991 81.7319 389.98 83.7071 389.506 85.5993C389.032 87.4915 388.052 89.3145 386.485 90.4758C385.78 90.9977 384.963 91.3781 384.098 91.5229C382.762 91.7467 381.394 91.4034 380.125 90.9309C378.432 90.3011 376.827 89.4362 375.371 88.3689C374.659 87.8476 373.924 87.1649 373.901 86.283C373.848 84.2495 374.076 82.2088 374.576 80.2368C374.895 78.9766 375.34 77.718 376.148 76.6997ZM381.467 89.5646C384.1 90.3206 386.902 88.2832 387.899 85.7316C388.897 83.18 388.528 80.314 387.98 77.6297C387.769 76.5991 386.668 76.0235 385.653 75.7479C384.081 75.3214 382.41 75.2648 380.813 75.5841C380.02 75.7428 379.209 76.0145 378.652 76.6017C378.349 76.9216 378.139 77.3167 377.933 77.7064L376.39 80.6222C376.119 81.1351 375.846 81.6525 375.686 82.2103C375.209 83.8787 375.839 85.7313 377.004 87.0174C378.169 88.3034 379.799 89.0858 381.467 89.5646ZM346.22 119.047C348.635 119.89 350.824 121.372 352.503 123.301C353.947 124.959 355.046 127.112 354.742 129.29C354.631 130.089 354.336 130.851 354 131.585C352.726 134.363 350.535 137.026 347.526 137.564C345.948 137.846 344.32 137.508 342.803 136.992C341.047 136.394 339.373 135.557 337.843 134.509C337.031 133.954 336.225 133.294 335.869 132.377C335.624 131.745 335.616 131.049 335.625 130.371C335.648 128.695 335.759 126.99 336.344 125.418C337.083 123.43 338.53 121.789 340.065 120.324C340.682 119.735 341.336 119.154 342.129 118.839C343.426 118.322 344.902 118.587 346.22 119.047ZM348.689 133.66C350.435 131.933 351.45 129.43 351.174 126.99C350.897 124.551 349.246 122.261 346.936 121.428C345.977 121.082 344.912 120.986 343.929 121.258C343.399 121.405 342.901 121.655 342.437 121.95C340.449 123.214 339.053 125.371 338.714 127.702C338.376 130.034 339.099 132.499 340.645 134.276C341.635 135.415 343.25 135.903 344.747 135.714C346.244 135.525 347.617 134.721 348.689 133.66ZM128.286 104.666C128.205 103.515 126.667 103.214 125.514 103.248C119.463 103.426 113.419 103.879 107.409 104.606C106.422 104.725 106.342 106.317 107.134 106.918C107.926 107.52 109.03 107.408 110.015 107.268L128.286 104.666ZM108.941 112.444C108.993 111.851 109.737 111.637 110.328 111.57L145.972 107.534C146.616 107.461 147.303 107.395 147.883 107.685C148.463 107.975 148.837 108.769 148.458 109.296C148.179 109.684 147.644 109.763 147.167 109.809L110.711 113.347C109.953 113.421 108.874 113.203 108.941 112.444ZM188.848 118.448C186.853 118.886 184.807 118.166 182.894 117.451C176.71 115.14 170.55 112.765 164.415 110.327C161.939 109.343 159.221 110.817 156.994 112.28C150.548 116.514 144.342 121.114 138.416 126.049C136.894 127.316 134.551 126.427 133.016 125.175C132.691 124.91 132.372 124.628 132.051 124.345L132.051 124.345C130.855 123.288 129.644 122.217 128.098 121.998C125.72 121.661 123.628 123.463 121.906 125.136L110.796 135.926C109.302 137.377 107.729 139.701 109.059 141.304C109.936 142.361 111.547 142.307 112.912 142.149C120.039 141.323 127.132 140.164 134.221 139.006L134.222 139.006C145.939 137.092 157.65 135.179 169.502 134.769C172.128 134.679 174.756 134.662 177.384 134.645C179.03 134.635 180.675 134.624 182.321 134.595C189.742 134.466 197.156 133.966 204.527 133.098C204.884 133.056 205.29 132.982 205.475 132.675C205.614 132.442 205.579 132.149 205.54 131.881L202.418 110.637C202.259 109.558 201.982 108.31 200.995 107.844C199.999 107.373 198.825 107.98 198.007 108.719C196.726 109.875 195.74 111.411 194.768 112.926C193.172 115.411 191.612 117.84 188.848 118.448ZM138.144 130.072C144.812 124.589 151.765 119.453 158.965 114.69C160.444 113.712 162.241 112.711 163.893 113.353L181.353 120.138C184.267 121.27 187.454 122.417 190.446 121.509C193.923 120.454 196.002 116.994 197.753 113.809C198.094 113.19 199.085 113.261 199.575 113.77C200.066 114.279 200.19 115.028 200.291 115.727L201.569 124.587C201.765 125.947 201.958 127.359 201.565 128.676C201.172 129.993 200.017 131.189 198.643 131.162C176.168 130.728 153.65 132.581 131.549 136.684C130.864 136.811 130.18 136.94 129.494 137.07C124.215 138.067 118.915 139.067 113.55 139.085C116.141 135.415 119.424 132.298 122.684 129.207C124.474 127.51 126.712 125.68 129.115 126.235C130.413 126.535 131.409 127.467 132.399 128.395L132.399 128.395L132.4 128.396C132.717 128.693 133.034 128.99 133.36 129.265C134.704 130.4 136.785 131.189 138.144 130.072ZM426.474 191.872C425.879 192.094 425.213 191.942 424.606 191.751C420.497 190.46 417.159 187.57 413.879 184.731L413.879 184.731C413.434 184.346 412.991 183.962 412.547 183.584C407.112 178.948 401.214 174.855 394.968 171.386C394.333 171.033 393.667 170.662 393.278 170.048C392.888 169.434 392.9 168.5 393.5 168.09C396.301 166.178 398.117 162.897 398.25 159.508C398.286 158.605 399.306 158.003 400.207 158.076C401.108 158.148 401.893 158.689 402.63 159.212L431.167 179.47C431.723 179.864 432.321 180.321 432.457 180.989C432.568 181.534 432.34 182.085 432.111 182.591C430.88 185.307 429.464 187.939 427.877 190.463C427.518 191.035 427.107 191.636 426.474 191.872ZM397.924 167.841C397.589 168.432 397.298 169.288 397.842 169.697L421.129 187.231C422.405 188.192 424.387 189.092 425.391 187.851C426.544 186.426 427.621 184.939 428.616 183.399C428.888 182.978 429.166 182.497 429.067 182.005C428.978 181.556 428.6 181.23 428.245 180.941C419.698 174.012 410.649 167.702 401.193 162.077L397.924 167.841ZM386.335 178.563C386.711 177.918 387.167 177.212 387.897 177.054C388.455 176.933 389.023 177.172 389.537 177.422C392.341 178.783 394.909 180.629 397.094 182.853C397.62 183.388 397.685 184.249 397.451 184.961C397.217 185.674 396.735 186.274 396.262 186.856C395.502 187.792 394.693 188.766 393.572 189.21C392.362 189.689 390.955 189.458 389.809 188.841C388.663 188.224 387.744 187.259 386.933 186.241C385.876 184.913 384.93 183.32 385.094 181.631C385.201 180.524 385.775 179.524 386.335 178.563ZM391.239 185.998C393.003 186.684 394.131 186.14 394.177 184.984C394.207 184.254 393.57 183.692 392.991 183.247L391.239 181.899C390.66 181.454 390.022 180.988 389.292 180.992C388.561 180.997 387.818 181.75 388.117 182.417C388.072 182.738 389.476 185.312 391.239 185.998ZM384.278 200.235C384.708 200.471 385.164 200.701 385.655 200.711C386.145 200.722 386.676 200.444 386.796 199.969C387.079 198.853 387.817 197.928 388.54 197.023L388.649 196.887C388.691 196.833 388.733 196.78 388.776 196.727C389.567 195.725 390.33 194.59 390.352 193.314C390.373 192.038 389.316 190.677 388.051 190.851C387.055 190.989 386.128 190.336 385.404 189.637C385.289 189.525 385.175 189.411 385.06 189.297C384.454 188.693 383.839 188.079 383.035 187.817C382.078 187.505 380.776 188.001 380.7 189.004C380.547 191.024 378.868 192.545 377.311 193.84C376.845 194.228 377.266 194.972 377.702 195.393C379.665 197.291 381.883 198.924 384.278 200.235ZM384.59 196.386L381.522 194.311C380.742 193.784 380.805 192.492 381.5 191.857C382.196 191.222 383.276 191.173 384.163 191.491C385.049 191.809 385.786 192.432 386.503 193.043C386.977 193.448 387.042 194.185 386.825 194.769C386.608 195.353 386.167 195.821 385.736 196.272C385.589 196.426 385.424 196.59 385.213 196.617C384.988 196.646 384.777 196.513 384.59 196.386ZM408.905 196.523L410.405 193.337C410.864 192.361 411.309 191.153 410.689 190.271C410.474 189.965 410.156 189.749 409.846 189.539L404.39 185.862C403.801 185.466 403.163 185.054 402.454 185.065C401.613 185.078 400.908 185.678 400.311 186.27C399.417 187.157 398.581 188.102 397.81 189.098C397.223 189.856 396.742 191.104 397.543 191.63L405.893 197.108C406.552 197.54 407.388 197.984 408.08 197.608C408.487 197.387 408.708 196.942 408.905 196.523ZM407.055 194.267C406.704 194.348 406.338 194.259 405.994 194.155C403.886 193.52 401.956 192.303 400.474 190.675C399.981 190.134 400.26 189.177 400.887 188.798C401.513 188.418 402.327 188.506 403.002 188.789C403.438 188.972 403.837 189.227 404.237 189.483C404.456 189.623 404.675 189.763 404.9 189.891C405.143 190.029 405.395 190.156 405.648 190.282C406.366 190.642 407.084 191.002 407.574 191.624C408.235 192.466 408.099 194.027 407.055 194.267ZM409.875 197.826C410.837 197.598 411.131 196.617 411.437 195.597C411.689 194.754 411.95 193.885 412.602 193.392C413.725 192.543 415.314 193.253 416.524 193.972L420.37 196.26C420.983 196.625 421.611 197.002 422.05 197.564C422.49 198.125 422.706 198.921 422.398 199.564C422.193 199.994 421.805 200.279 421.414 200.566C421.094 200.801 420.771 201.038 420.546 201.356C420.257 201.766 420.149 202.28 420.043 202.787C419.91 203.424 419.778 204.051 419.292 204.451C418.407 205.181 417.09 204.596 416.112 203.998L410.693 200.687C410.146 200.353 409.57 199.986 409.301 199.405C409.033 198.823 409.252 197.975 409.875 197.826ZM416.979 201.115C417.755 200.85 418.379 200.274 418.977 199.714C419.411 199.308 418.831 198.64 418.313 198.348L414.993 196.479C414.647 196.284 414.165 196.106 413.896 196.399C413.031 197.343 412.906 198.883 413.606 199.954C414.307 201.025 415.768 201.528 416.979 201.115ZM378.888 200.999C378.145 200.789 377.388 200.576 376.781 200.162C375.838 199.519 374.526 199.675 373.537 200.243C372.547 200.811 371.81 201.722 371.096 202.612C370.699 203.106 370.293 203.621 370.141 204.236C369.99 204.85 370.17 205.595 370.723 205.904L376.513 209.131C376.951 209.375 377.441 209.628 377.931 209.519C378.419 209.411 378.755 208.977 379.049 208.573L380.539 206.524C381.368 205.383 382.234 203.928 381.628 202.655C381.142 201.634 380.031 201.321 378.888 200.999ZM377.055 206.308C376.753 206.388 376.441 206.242 376.162 206.1L372.218 204.092C372.976 203.019 374.419 202.608 375.726 202.737C377.034 202.867 378.248 203.449 379.431 204.021L377.618 205.903C377.456 206.072 377.282 206.248 377.055 206.308ZM349.731 126.045C350.342 126.976 350.151 128.22 349.746 129.257C349.212 130.624 348.309 131.891 347.035 132.618C345.76 133.345 344.086 133.452 342.844 132.67C341.602 131.888 340.978 130.15 341.643 128.842C341.797 128.54 342.007 128.272 342.217 128.004C342.418 127.747 342.62 127.491 342.772 127.204C342.872 127.015 342.95 126.815 343.027 126.614C343.14 126.326 343.252 126.038 343.43 125.786C344.062 124.891 345.307 124.715 346.403 124.73C347.646 124.748 349.05 125.005 349.731 126.045ZM346.956 126.636C345.256 126.615 343.661 128.041 343.492 129.733C343.423 130.425 343.717 131.285 344.405 131.38C344.921 131.452 345.374 131.053 345.721 130.664C346.454 129.842 347.084 128.928 347.591 127.95C347.762 127.621 347.912 127.2 347.688 126.906C347.525 126.691 347.226 126.64 346.956 126.636ZM387.632 82.2801C387.501 80.7228 386.459 79.1912 384.946 78.801C383.023 78.3055 381.16 79.6589 379.634 80.9286C379.183 81.3042 378.711 81.7081 378.52 82.2633C378.196 83.2054 378.78 84.1982 379.354 85.0121C380.013 85.9442 380.716 86.8811 381.676 87.4972C382.637 88.1132 383.917 88.3524 384.925 87.8171C385.439 87.5442 385.838 87.0985 386.186 86.6319C387.119 85.3782 387.763 83.8373 387.632 82.2801ZM383.369 86.2724C382.717 86.3701 382.042 86.107 381.562 85.6554C380.844 84.9788 380.559 83.8912 380.81 82.9368C381.074 81.9319 381.917 81.1018 382.926 80.854C383.936 80.6061 385.068 80.9508 385.767 81.7188C385.741 81.9282 385.719 82.1388 385.698 82.3495L385.697 82.35C385.623 83.066 385.549 83.7832 385.301 84.4558C384.98 85.3265 384.286 86.1348 383.369 86.2724ZM331.626 329.183C335.171 316.644 341.862 305.264 348.485 294.043C349.604 292.146 350.992 290.058 353.165 289.698C354.021 289.556 354.473 288.625 354.765 287.807C358.357 277.732 358.703 266.528 355.74 256.25C354.894 253.316 355.935 250.206 356.966 247.332L364.942 225.081C364.113 223.646 362.544 223.016 360.955 222.377C359.625 221.843 358.282 221.303 357.344 220.281C354.697 217.395 356.694 212.807 358.768 209.485L395.125 151.26C396.61 148.883 399.868 148.137 402.599 148.771C405.329 149.404 407.662 151.123 409.908 152.801L436.424 172.606C441.167 176.149 446.404 180.675 446.131 186.59C445.98 189.863 444.107 192.772 442.295 195.502L421.281 227.168C418.564 231.262 418.234 236.24 417.903 241.241C417.753 243.503 417.603 245.769 417.232 247.961C415.419 258.652 408.299 267.506 401.478 275.989L401.094 276.466C400.95 276.645 400.807 276.824 400.663 277.003C393.603 285.796 386.539 295.615 386.142 306.884C385.669 320.316 379.288 333.435 369.013 342.099L377.954 320.407C380.081 315.249 382.05 308.831 378.491 304.533C376.881 302.589 374.448 301.56 372.112 300.602L358.225 294.905C357.268 294.512 356.281 294.113 355.246 294.106C352.02 294.087 350.101 297.585 348.793 300.534C344.267 310.736 338.488 320.381 331.626 329.183ZM377.288 299.725C379.669 300.606 383.021 301.142 384.149 298.867C389.61 287.859 395.22 276.64 403.913 267.954C408.923 262.948 411.994 256.268 413.732 249.402C415.469 242.536 415.961 235.425 416.446 228.359C414.336 229.127 414.153 231.973 414.162 234.218C414.182 239.167 413.317 244.117 411.62 248.766C411.265 249.739 410.788 250.79 409.837 251.201C408.886 251.611 407.485 250.787 407.805 249.802C410.258 242.24 411.172 234.183 410.475 226.264C410.26 223.809 409.802 221.183 408.057 219.443C408.246 223.319 408.435 227.213 408.042 231.075C407.363 237.755 404.967 244.125 402.593 250.407C402.285 251.222 401.912 252.111 401.129 252.494C400.346 252.878 399.13 252.27 399.335 251.423L402.891 236.725C404.846 228.644 406.768 219.951 403.742 212.207C402.218 212.105 401.859 214.284 401.995 215.806C402.927 226.228 400.046 236.572 397.193 246.638C396.86 247.814 395.682 249.283 394.766 248.475C394.371 248.126 394.353 247.526 394.385 247C394.565 244.039 395.376 241.174 396.187 238.311L396.188 238.308C396.439 237.42 396.69 236.533 396.923 235.643C399.066 227.433 399.613 218.81 398.523 210.395C396.645 212.802 395.848 215.855 395.097 218.814L390.634 236.38C388.616 244.321 386.039 253.051 379.044 257.316C378.487 257.656 377.84 257.972 377.205 257.822C376.416 257.634 375.969 256.819 375.64 256.078C371.176 246.022 370.618 234.291 374.108 223.857C374.32 223.224 373.676 222.562 373.01 222.51C372.345 222.457 371.722 222.82 371.176 223.205C365.449 227.246 363.255 234.567 361.433 241.335L359.011 250.336C358.657 251.65 358.301 252.977 358.227 254.336C358.115 256.402 358.654 258.424 359.191 260.434L359.191 260.435C359.315 260.901 359.44 261.366 359.556 261.831C361.886 271.182 360.833 281.337 356.635 290.011C356.016 291.29 357.65 292.453 358.982 292.947L377.288 299.725ZM386.336 213.829C385.381 213.171 384.358 212.42 384.062 211.299C383.61 209.579 385.247 207.852 387.011 207.62C388.774 207.389 390.499 208.24 391.96 209.254C394.018 210.681 396.623 208.504 398.164 206.529C396.085 205.286 394.102 203.355 394.02 200.934C393.938 198.513 396.882 196.207 398.841 197.632C399.601 198.185 400.521 198.523 401.43 198.858C402.793 199.359 404.133 199.852 404.88 201.045C405.73 202.402 405.428 204.237 404.563 205.585C403.697 206.932 402.365 207.9 401.065 208.834C402.932 209.019 404.749 209.685 406.293 210.749L407.977 205.844C408.107 205.464 408.249 205.066 408.548 204.797C409.125 204.28 410.023 204.44 410.762 204.674C412.7 205.289 414.601 206.25 415.88 207.83C417.159 209.411 417.693 211.707 416.799 213.534C415.905 215.36 413.382 216.334 411.672 215.233C411.318 215.004 410.962 214.699 410.605 214.394L410.605 214.394C409.652 213.577 408.699 212.761 407.779 213.414C410.588 215.601 412.517 218.887 413.059 222.405C421.9 208.937 430.647 195.406 439.299 181.815C440.124 180.518 440.79 178.473 439.446 177.727C433.7 174.539 428.622 170.271 423.556 166.012C417.161 160.637 410.786 155.278 403.113 152.131C402.626 151.931 402.093 151.738 401.584 151.872C401.051 152.013 400.675 152.477 400.34 152.915C386.051 171.565 373.227 191.337 362.025 211.989C360.462 214.87 362.554 218.304 364.555 220.9C365.555 222.197 367.485 223.568 368.575 222.346C369.949 220.805 372.202 219.925 374.148 220.613C376.094 221.3 377.305 223.831 376.247 225.603C375.481 226.885 376.98 228.31 378.289 229.027C380.905 230.46 383.588 231.77 386.327 232.951C386.708 233.115 387.151 233.276 387.522 233.09C387.875 232.913 388.018 232.493 388.129 232.114L391.163 221.673C391.662 219.956 391.996 217.727 390.523 216.713L386.336 213.829ZM440.616 184.561C440.214 184.423 439.846 184.826 439.609 185.181L416.889 219.19C416.278 220.105 415.652 221.056 415.474 222.142C415.295 223.228 415.694 224.49 416.682 224.974C418.319 225.774 420.03 224.092 421.08 222.604L442.19 192.685C443.757 190.464 442.431 187.427 441.089 185.062C440.973 184.858 440.839 184.638 440.616 184.561ZM376.649 229.976C376.249 229.685 375.651 229.858 375.316 230.223C374.981 230.587 374.844 231.086 374.718 231.564C374.408 232.742 374.096 233.931 374.05 235.148C374.004 236.365 374.225 237.575 374.445 238.772L376.621 250.599C376.712 251.095 376.819 251.622 377.17 251.983C377.522 252.344 378.207 252.422 378.491 252.006C381.712 247.297 384.977 242.495 386.662 237.044C386.871 236.367 386.932 235.414 386.268 235.164C382.848 233.877 379.603 232.127 376.649 229.976ZM401.774 200.796C400.684 199.757 399.242 199.094 397.744 198.941C396.378 198.802 395.59 200.721 396.213 201.944C396.837 203.167 398.214 203.773 399.489 204.284C400.388 204.644 401.479 204.984 402.264 204.415C403.391 203.597 402.783 201.757 401.774 200.796ZM392.805 214.501C393.249 214.184 393.307 213.538 393.182 213.006C392.714 211.004 390.519 209.982 388.548 209.395C387.786 209.169 386.837 209.011 386.3 209.597C385.851 210.087 385.947 210.897 386.334 211.437C386.721 211.977 387.326 212.309 387.911 212.624L390.955 214.264C391.533 214.575 392.269 214.881 392.805 214.501ZM410.124 207.286C409.48 208.148 409.545 209.403 410.083 210.336C410.621 211.269 411.552 211.918 412.534 212.359C412.871 212.51 413.241 212.643 413.603 212.571C413.914 212.509 414.181 212.299 414.371 212.045C415.075 211.105 414.733 209.69 413.928 208.836C413.122 207.983 411.976 207.555 410.872 207.155C410.682 207.086 410.46 207.02 410.287 207.124C410.221 207.164 410.17 207.224 410.124 207.286ZM104.852 285.505C105.274 282.391 105.864 278.963 108.311 276.99C110.263 275.418 112.941 275.167 115.447 275.118C123.656 274.961 131.891 276.294 139.63 279.033C142.079 279.9 144.641 281.041 145.98 283.267C147.429 285.676 147.076 288.715 146.675 291.498L140.459 334.683C144.745 322.177 147.823 309.256 149.634 296.16C150.479 290.051 150.774 283.04 146.51 278.584C139.853 271.627 140.035 261.719 140.22 251.643C140.379 242.948 140.54 234.129 136.311 226.976C134.93 224.643 138.007 222.233 140.567 221.337C151.846 217.388 163.87 215.576 175.812 216.026C178.002 233.321 178.594 250.819 177.579 268.223C177.352 272.126 182.887 273.133 186.773 272.702L321.586 257.753C322.261 257.679 322.991 257.578 323.469 257.097C324.027 256.535 324.055 255.652 324.047 254.859C323.729 223.273 322.82 191.693 321.32 160.14C321.262 158.909 321.105 157.495 320.086 156.801C319.321 156.281 318.316 156.35 317.396 156.44L221.171 165.767C227.493 135.954 233.85 105.58 230.967 75.2403C209.932 89.2652 182.789 89.16 157.55 87.6749C156.502 87.6131 155.45 87.5503 154.397 87.4874C130.109 86.0358 104.781 84.5221 82.946 95.0285C94.3788 125.341 105.943 158.429 96.4392 189.401C95.5984 192.141 94.598 194.832 93.5981 197.523C92.0564 201.671 90.5158 205.816 89.563 210.131C87.9923 217.245 88.2284 225.21 92.4384 231.156C98.5349 239.765 103.379 249.555 104.484 260.046C105.533 270.002 103.19 279.876 100.85 289.739C98.4044 300.044 95.962 310.337 97.3942 320.698C97.6365 322.451 98.0741 324.337 99.4465 325.454L104.852 285.505ZM114.39 160.397C116.94 160.487 117.953 163.688 118.279 166.218L120.86 186.253C115.821 183.64 108.731 188.075 108.875 193.75C104.629 185.553 103.983 176.159 103.345 166.86C103.206 164.837 103.067 162.818 102.892 160.818C101.017 139.423 94.569 118.73 88.161 98.2316C87.2473 95.3087 91.194 93.4133 94.224 92.9691C114.108 90.0539 134.232 90.4564 154.365 90.8591C163.491 91.0416 172.618 91.2242 181.727 91.0978C197.911 90.8733 215.035 89.3416 228.163 79.8742C231.114 99.5449 227.103 119.391 223.144 138.988C222.608 141.638 222.073 144.285 221.557 146.925C217.222 169.087 214.272 192.709 222.565 213.713C222.915 214.598 221.723 215.265 220.792 215.459C213.971 216.882 206.919 217.188 200 216.363C197.032 216.008 194.096 215.449 191.159 214.889C188.947 214.467 186.735 214.045 184.509 213.711C167.751 211.197 150.26 213.807 134.966 221.104C134.353 221.396 133.624 221.259 132.982 221.037C129.884 219.965 127.675 217.103 126.572 214.016C125.47 210.93 125.312 207.598 125.165 204.324L124.548 190.59C124.526 190.097 124.655 189.427 125.149 189.411C151.94 188.574 178.701 186.768 205.362 183.998C204.234 177.69 204.122 171.201 205.032 164.858C205.606 160.854 201.84 157.203 197.83 156.667C193.821 156.132 189.856 157.948 186.526 160.246C185.281 161.105 184.085 162.039 182.89 162.972C180.89 164.533 178.892 166.093 176.668 167.302C175.212 168.093 173.461 168.731 171.932 168.092C170.061 167.31 169.433 165.084 168.873 163.097C168.838 162.972 168.803 162.848 168.768 162.726C168.039 160.167 166.834 157.62 164.714 156.01C162.595 154.401 159.398 154 157.306 155.645C155.517 157.051 154.952 159.487 154.652 161.742C154.626 161.943 154.6 162.145 154.574 162.347C154.308 164.421 154.034 166.564 152.796 168.227C151.438 170.052 148.407 170.834 146.917 169.115C143.97 165.714 138.8 165.001 134.462 166.194C130.124 167.388 126.411 170.144 122.812 172.844C120.641 169.446 120.461 164.87 122.359 161.313L122.391 161.253C122.748 160.585 123.158 159.818 122.842 159.138C122.647 158.717 122.216 158.458 121.789 158.275C119.236 157.181 115.975 158.116 114.39 160.397ZM191.101 217.826C192.529 218.111 194.283 218.747 194.371 220.2C195.213 234.055 206.224 246.506 219.762 249.572C233.299 252.639 248.303 246.438 256.196 235.02C264.09 223.602 264.708 207.741 258.235 195.462C251.294 182.293 234.424 175.3 220.202 179.695C219.542 176.785 219.616 173.711 220.416 170.837C220.565 170.303 220.758 169.745 221.189 169.396C221.61 169.056 222.179 168.978 222.716 168.914L262.781 164.088C266.303 163.664 269.834 163.239 273.382 163.21C288.638 163.084 303.882 161.563 318.862 158.671C321.19 189.927 322.285 221.274 322.145 252.616C322.138 254.103 321.685 256.078 320.199 256.122C294.984 256.856 269.968 260.173 244.942 263.491C228.129 265.72 211.31 267.95 194.424 269.398C190.661 269.721 186.871 270.004 183.111 269.646C182.429 269.581 181.66 269.442 181.29 268.866C181.066 268.519 181.041 268.084 181.023 267.672L178.775 217.541C178.745 216.893 178.785 216.113 179.346 215.787C179.717 215.572 180.183 215.649 180.604 215.733L191.101 217.826ZM122.117 206.22C121.718 208.824 121.27 211.753 122.976 213.723C129.338 221.071 135.948 228.922 137.639 238.493C138.429 242.963 138.09 247.563 137.752 252.144C137.326 257.915 136.903 263.656 138.741 269.07C138.788 269.211 138.838 269.353 138.888 269.494C139.225 270.46 139.57 271.443 139.46 272.451C139.335 273.607 138.331 274.769 137.186 274.572L123.885 272.278C119.48 271.518 114.826 270.779 110.642 272.351C109.833 272.655 108.902 272.122 108.469 271.374C108.035 270.627 107.978 269.727 107.941 268.863C107.895 267.821 107.861 266.771 107.827 265.719C107.612 259.097 107.393 252.351 104.328 246.55L94.5496 228.039C93.106 225.306 91.6287 222.451 91.5291 219.363C91.4626 217.3 92.0194 215.274 92.5715 213.285L97.4499 195.713C98.4769 192.013 99.5635 188.196 101.996 185.225C107.904 195.25 108.487 208.219 103.502 218.733C103.041 219.705 104.45 220.707 105.454 220.319C106.458 219.932 106.968 218.831 107.322 217.815C108.74 213.743 109.238 209.45 109.736 205.151C110.138 201.673 110.542 198.191 111.434 194.818C111.98 192.752 112.768 190.643 114.364 189.221C115.959 187.799 118.561 187.312 120.233 188.644C121.512 189.662 121.928 191.404 122.172 193.021C122.814 197.288 122.811 201.651 122.163 205.918C122.148 206.018 122.132 206.119 122.117 206.22ZM145.067 171.529C147.028 173.029 148.948 174.499 151.3 174.227C154.29 173.881 156.154 170.803 157.022 167.921C157.212 167.29 157.381 166.645 157.551 165.998C158.156 163.689 158.765 161.361 160.35 159.624C160.81 159.119 161.473 158.649 162.127 158.847C162.657 159.007 162.965 159.544 163.211 160.04C163.56 160.742 163.89 161.457 164.22 162.172C165.151 164.187 166.082 166.204 167.433 167.955C169.264 170.328 172.112 172.194 175.091 171.867C177.754 171.575 179.835 169.689 181.864 167.851C182.28 167.474 182.693 167.099 183.11 166.74C187.995 162.527 194.359 160.062 200.808 159.884C199.938 162.058 200.518 164.43 201.087 166.757C201.224 167.317 201.361 167.875 201.476 168.426C202.386 172.779 201.926 177.408 200.177 181.496L157.102 184.812C147.046 185.586 136.965 186.361 126.886 186.007C126.249 185.984 125.596 185.954 125.01 185.703C123.904 185.23 123.247 184.049 123.009 182.869C122.475 180.225 123.694 177.47 125.541 175.503C127.388 173.536 129.8 172.211 132.169 170.92C134.634 169.575 137.371 168.186 140.119 168.76C141.948 169.142 143.52 170.345 145.067 171.529ZM226.634 234.275C220.109 234.141 214.455 228.817 212.517 222.584C212.122 221.312 212.944 219.916 214.079 219.217C215.214 218.518 216.587 218.353 217.911 218.204L227.473 217.13C224.565 211.479 222.494 205.397 221.348 199.146C221.244 198.579 221.149 197.983 221.329 197.435C221.643 196.473 222.68 195.966 223.64 195.644C231.408 193.033 240.736 196.203 245.304 203.007C249.873 209.811 249.274 219.646 243.912 225.845C241.591 228.528 238.549 230.509 235.345 232.033C232.612 233.333 229.659 234.338 226.634 234.275ZM257.6 200.683C258.761 204.517 259.097 208.55 259.256 212.553C256.649 212.158 254.016 211.934 251.379 211.883C250.863 205.15 246.382 199.067 240.49 195.767C234.599 192.467 227.488 191.753 220.83 192.883C220.774 191.934 220.601 190.944 220.428 189.954C219.971 187.34 219.514 184.726 221.204 182.871C222.225 181.751 223.78 181.302 225.27 181.025C232.058 179.76 239.295 181.085 245.194 184.672C251.093 188.259 255.6 194.075 257.6 200.683ZM209.741 221.905C209.73 222.029 209.72 222.151 209.714 222.268C209.67 223.199 210.104 224.052 210.533 224.897C210.648 225.123 210.763 225.349 210.868 225.575C211.365 226.647 211.606 228.058 210.775 228.897C208.763 230.928 206.986 233.19 205.489 235.624C205.118 236.226 204.207 236.275 203.598 235.916C202.989 235.557 202.611 234.917 202.26 234.304C200.034 230.424 197.753 226.365 197.475 221.9C197.441 221.345 197.502 220.673 197.994 220.414C198.211 220.3 198.467 220.297 198.712 220.296L208.666 220.266C208.904 220.265 209.154 220.267 209.361 220.385C209.849 220.662 209.793 221.307 209.741 221.905Z" fill="#00160A"/>
</svg>
